<?xml version="1.0" encoding="iso-8859-1"?>
<!-- Generator: Adobe Illustrator 19.0.0, SVG Export Plug-In . SVG Version: 6.00 Build 0)  -->
<svg version="1.1" id="Layer_1" xmlns="http://www.w3.org/2000/svg" xmlns:xlink="http://www.w3.org/1999/xlink" x="0px" y="0px"
	 viewBox="0 0 511.999 511.999" style="enable-background:new 0 0 511.999 511.999;" xml:space="preserve">
<g>
	<path style="fill:#CEE8FA;" d="M473.112,255.998c35.274-23.516,23.516-70.549,23.516-70.549c-70.549,0-94.065,70.549-94.065,70.549
		s23.516,70.549,94.065,70.549C496.628,326.547,508.387,279.514,473.112,255.998L473.112,255.998z"/>
	<path style="fill:#CEE8FA;" d="M213.36,150.174c32.931,0,62.17,8.304,87.206,20.255v-69.894
		C171.493,86.194,142.811,157.9,142.811,157.9l1.827,0.333C164.713,153.206,187.518,150.174,213.36,150.174z"/>
	<path style="fill:#CEE8FA;" d="M213.36,361.821c-26.349,0-49.55-3.145-69.912-8.351c4.898,10.115,39.915,71.547,162.507,57.927
		v-72.496C279.757,352.265,248.685,361.821,213.36,361.821z"/>
</g>
<g>
	<path style="fill:#2D527C;" d="M509.697,182.181c-1.498-5.996-6.886-10.203-13.068-10.203c-32.974,0-61.964,13.874-83.837,40.122
		c-11.45,13.74-18.092,27.516-21.086,34.657c-0.513,0.544-0.997,1.126-1.424,1.769c-0.59,0.885-53.481,78.712-141.555,96.307
		c-0.473,0.094-0.943,0.194-1.416,0.284c-1.004,0.193-2.017,0.368-3.03,0.544c-0.729,0.127-1.458,0.253-2.188,0.37
		c-0.899,0.146-1.801,0.28-2.706,0.414c-0.857,0.125-1.715,0.244-2.572,0.357c-0.827,0.109-1.657,0.214-2.491,0.311
		c-0.95,0.112-1.901,0.212-2.853,0.307c-0.766,0.078-1.532,0.158-2.302,0.225c-1.047,0.092-2.093,0.167-3.141,0.241
		c-0.694,0.048-1.383,0.105-2.08,0.145c-1.192,0.07-2.386,0.119-3.579,0.166c-0.566,0.022-1.128,0.055-1.696,0.071
		c-1.77,0.053-3.542,0.082-5.314,0.082c-2.72,0-5.419-0.044-8.107-0.115c-0.389-0.009-0.78-0.019-1.169-0.031
		c-20.194-0.61-39.432-3.217-57.3-7.785c-0.35-0.089-0.703-0.129-1.055-0.19c-30.384-7.876-57.089-21.461-79.824-40.659
		c-20.568-17.368-32.231-34.96-37.212-43.585c10.028-17.392,47.264-71.066,132.121-87.504c0.115-0.022,0.228-0.046,0.342-0.067
		c1.404-0.269,2.822-0.527,4.251-0.776c1.322-0.228,2.651-0.447,3.985-0.656c1.296-0.205,2.605-0.397,3.923-0.586
		c1.598-0.225,3.199-0.441,4.813-0.639c0.699-0.086,1.393-0.176,2.097-0.257c2.286-0.261,4.588-0.496,6.904-0.702
		c0.556-0.05,1.119-0.094,1.68-0.141c2.337-0.194,4.685-0.366,7.052-0.505c0.158-0.009,0.31-0.022,0.467-0.03
		c2.508-0.141,5.037-0.244,7.576-0.322c0.577-0.018,1.156-0.034,1.736-0.049c2.559-0.065,5.13-0.108,7.719-0.108
		c1.625,0,3.248,0.027,4.871,0.07c0.356,0.009,0.71,0.026,1.066,0.036c1.366,0.044,2.731,0.101,4.095,0.176
		c0.228,0.012,0.455,0.027,0.683,0.039c24.032,1.432,47.761,7.673,70.689,18.617c0.42,0.201,0.849,0.37,1.281,0.525
		c16.053,7.806,31.723,17.947,46.944,30.4c5.757,4.711,14.244,3.862,18.955-1.895c4.712-5.758,3.862-14.244-1.895-18.955
		c-14.751-12.069-30.155-22.25-46.01-30.492v-61.632c0-6.865-5.161-12.63-11.984-13.387c-11.817-1.313-23.341-1.979-34.253-1.979
		c-92.049,0-125.842,46.195-134.837,62.334c-38.85,11.182-66.835,29.24-85.638,45.355C14.531,220.97,1.692,249.334,1.161,250.528
		c-1.548,3.484-1.548,7.459,0,10.942c0.531,1.194,13.37,29.557,46.166,57.669c19.025,16.307,47.46,34.595,87.031,45.743
		c10.841,17.947,46.713,61.948,137.707,61.948c11.268,0,23.173-0.688,35.379-2.045c6.822-0.758,11.984-6.524,11.984-13.387v-64.453
		c13.96-7.697,27.547-16.91,40.622-27.607c17.243-14.108,30.466-28.175,39.357-38.673c3.423,5.915,7.841,12.579,13.386,19.234
		c21.873,26.248,50.864,40.122,83.837,40.122c6.182,0,11.57-4.207,13.068-10.203c0.505-2.022,10.637-44.309-16.049-73.817
		C520.334,226.49,510.203,184.203,509.697,182.181z M175.388,138.933c16.418-13.157,44.908-26.823,92.414-26.823
		c6.218,0,12.674,0.24,19.293,0.714v37.285c-22.479-8.332-45.57-12.808-68.926-13.348c-0.003,0-0.007,0-0.011,0
		c-1.599-0.036-3.199-0.057-4.8-0.057c-2.988,0-5.927,0.051-8.838,0.128c-0.901,0.024-1.796,0.062-2.694,0.093
		c-2.045,0.071-4.074,0.159-6.079,0.267c-1.032,0.057-2.062,0.115-3.09,0.179c-1.926,0.123-3.83,0.267-5.72,0.422
		c-1.002,0.082-2.009,0.154-3.005,0.247c-2.516,0.232-5.002,0.492-7.454,0.78C176.117,138.861,175.749,138.889,175.388,138.933z
		 M292.484,359.806v39.308c-46.883,3.432-84.341-4.52-111.075-23.305c-1.15-0.81-2.255-1.619-3.315-2.43
		c1.117,0.124,2.251,0.214,3.374,0.326c1.123,0.113,2.248,0.225,3.385,0.327c1.33,0.117,2.663,0.225,4.001,0.326
		c1.475,0.112,2.964,0.213,4.462,0.304c1.152,0.07,2.304,0.143,3.461,0.201c1.792,0.09,3.608,0.158,5.43,0.22
		c0.924,0.031,1.844,0.073,2.772,0.096c2.762,0.07,5.551,0.112,8.382,0.112c1.621,0,3.241-0.02,4.862-0.058
		c1.485-0.035,2.966-0.092,4.448-0.158c0.1-0.005,0.199-0.007,0.299-0.011C246.566,373.973,269.844,368.865,292.484,359.806z
		 M485.009,312.3c-42.9-5.865-62.456-43.347-67.981-56.27c5.535-12.766,25.305-50.386,67.958-56.32
		c0.655,12.632-1.445,33.144-19.346,45.078c-3.748,2.498-5.999,6.705-5.999,11.208s2.251,8.71,5.999,11.208
		C483.605,279.183,485.693,299.654,485.009,312.3z"/>
	<path style="fill:#2D527C;" d="M158.975,325.154c-4.832,0-9.502-2.607-11.919-7.173c-3.48-6.577-0.969-14.729,5.607-18.207
		c16.274-8.611,26.384-25.383,26.384-43.775s-10.11-35.165-26.384-43.775c-6.575-3.478-9.086-11.631-5.607-18.207
		c3.478-6.575,11.63-9.088,18.207-5.607c25.119,13.289,40.726,39.188,40.726,67.589s-15.606,54.3-40.726,67.589
		C163.255,324.65,161.099,325.154,158.975,325.154z"/>
</g>
<g>
</g>
<g>
</g>
<g>
</g>
<g>
</g>
<g>
</g>
<g>
</g>
<g>
</g>
<g>
</g>
<g>
</g>
<g>
</g>
<g>
</g>
<g>
</g>
<g>
</g>
<g>
</g>
<g>
</g>
</svg>
